# xmcd
#
# Track frame offsets: 
#        150
#        11513
#        19936
#        31598
#        41319
#        51870
#        64095
#        72662
#        81460
#        91583
#        102595
#        113811
#        123200
#        131634
#        145169
#        155907
#        166230
#        176937
#        187070
#        196897
#        207272
#        218604
#        228200
#        239723
#
# Disc length: 3330 seconds
#
# Revision: 0
# Processed by: cddbd v1.5.2PL0 Copyright (c) Steve Scherf et al.
# Submitted via: ExactAudioCopyFreeDBPlugin 1.0
#
DISCID=560d0018
DTITLE=Various Artist - Philly Doo Wop [That Philly Sound]
DYEAR=2013
DGENRE=Rhythm and Blues
TTITLE0=Anthony and The Sophomores - Play Those Oldies, Mr. D.J.
TTITLE1=Billy and The Essentials - Maybe You'll Be There
TTITLE2=The Hi-Tones - Sure as the Flowers
TTITLE3=The Premiers - I Think I Love You
TTITLE4=Maureen Gray - I'm So Young
TTITLE5=Johnny Madara - Sometimes
TTITLE6=Dale and The Cashmeres - Pete the Mongoose
TTITLE7=Danny and The Juniors - Little Doll
TTITLE8=Billy and The Essentials - Dance is Over
TTITLE9=Bobby Wells - Dance Little Girl
TTITLE10=The Hearts - Isle of Love
TTITLE11=The Matadors - Listen
TTITLE12=The Sultans - Christina
TTITLE13=Dale and The Cashmeres - Last Night
TTITLE14=Danny and The Juniors - Now and Then
TTITLE15=Billy and The Essentials - Young at Heart
TTITLE16=Johnny Madara - Story Untold
TTITLE17=The Sultans - Someone You Can Trust
TTITLE18=Danny and The Juniors - Sad Girl
TTITLE19=The Hearts - Mamma
TTITLE20=Anthony and The Sophomores - Better Late Than Never
TTITLE21=The Four Lyrics - Yesterday
TTITLE22=The Matadors - So Near
TTITLE23=Billy and The Essentials - Last Dance
EXTD=
EXTT0=
EXTT1=
EXTT2=
EXTT3=
EXTT4=
EXTT5=
EXTT6=
EXTT7=
EXTT8=
EXTT9=
EXTT10=
EXTT11=
EXTT12=
EXTT13=
EXTT14=
EXTT15=
EXTT16=
EXTT17=
EXTT18=
EXTT19=
EXTT20=
EXTT21=
EXTT22=
EXTT23=
PLAYORDER=
